<?xml version="1.0" encoding="utf-8"?>
<!-- Generator: Adobe Illustrator 22.0.0, SVG Export Plug-In . SVG Version: 6.00 Build 0)  -->
<svg version="1.1" id="Layer_1" xmlns="http://www.w3.org/2000/svg" xmlns:xlink="http://www.w3.org/1999/xlink" x="0px" y="0px"
	 viewBox="0 0 636 307.9" style="enable-background:new 0 0 636 307.9;" xml:space="preserve">
<style type="text/css">
	.st0{fill:#FFFFFF;}
</style>
<title>@brand-logo-text-primary_4</title>
<path class="st0" d="M143.6,207.4H5.4V180l65.3-69.5c8.9-9.8,15.6-18.3,19.8-25.6c4.3-7.3,6.4-14.2,6.5-20.8c0-9-2.3-16-6.8-21.1
	s-11-7.7-19.4-7.7c-9.1,0-16.2,3.1-21.4,9.3S41.6,59,41.6,69.2H1.4c-0.1-11.8,2.9-23.4,8.8-33.6s14.5-18.4,24.9-23.9
	C45.8,5.9,57.9,3,71.5,3c20.8,0,36.9,5,48.4,15s17.2,24,17.2,42.2c0,10-2.6,20.1-7.7,30.5c-5.2,10.3-14,22.4-26.6,36.1l-45.9,48.3
	h86.7V207.4z"/>
<path class="st0" d="M230,183.6h-41.7l-7.9,23.8h-25.3l43-115.4h22l43.2,115.3H238L230,183.6z M194.8,164.3h28.8l-14.5-43.2
	L194.8,164.3z"/>
<path class="st0" d="M291.6,122.1l0.7,9.8c6.1-7.6,14.3-11.4,24.5-11.4c9,0,15.7,2.7,20.2,8c4.4,5.3,6.7,13.2,6.8,23.8v55H321v-54.5
	c0-4.8-1-8.3-3.1-10.5s-5.6-3.3-10.4-3.3c-6-0.3-11.6,2.9-14.5,8.2v60.1h-22.7v-85.2C270.3,122.1,291.6,122.1,291.6,122.1z"/>
<path class="st0" d="M352.1,171.2c-0.1-6.5,1.3-13,4.1-18.9c2.6-5.3,6.6-9.8,11.7-12.8c5.4-3.1,11.6-4.7,17.8-4.5
	c9.6,0,17.4,2.9,23.5,8.8c6.1,5.9,9.4,13.9,10.1,24l0.1,4.9c0,10.9-3,19.6-9.1,26.2c-6.1,6.6-14.3,9.9-24.5,9.8
	c-10.2,0-18.4-3.3-24.5-9.9c-6.1-6.6-9.2-15.5-9.2-26.8V171.2z M371,172.5c0,6.8,1.3,11.9,3.8,15.5c4.6,6,13.2,7.1,19.2,2.5
	c0.9-0.7,1.8-1.5,2.5-2.5c2.6-3.5,3.9-9.2,3.9-16.9c0-6.6-1.3-11.8-3.9-15.4c-2.4-3.6-6.6-5.6-10.9-5.5c-4.3-0.2-8.4,1.9-10.8,5.4
	C372.3,159.3,371,164.9,371,172.5L371,172.5z"/>
<path class="st0" d="M467.7,190.7c0-2-1.1-3.9-3-4.7c-2-1.1-5.1-2.2-9.5-3.1c-14.5-3-21.7-9.2-21.7-18.4c0-5.4,2.2-9.9,6.7-13.5
	s10.3-5.4,17.6-5.4c7.7,0,13.9,1.8,18.5,5.5c4.5,3.3,7.1,8.6,6.9,14.2h-16.3c0.1-2.2-0.7-4.2-2.3-5.8c-1.5-1.5-3.8-2.3-7-2.3
	c-2.3-0.1-4.5,0.5-6.3,1.9c-1.5,1.1-2.3,2.9-2.3,4.7s1,3.5,2.6,4.4c1.7,1.1,4.6,2.1,8.6,2.8c3.5,0.7,6.9,1.6,10.2,2.7
	c8.6,3.2,12.9,8.6,12.9,16.4c0,5.5-2.4,10-7.1,13.5c-4.8,3.4-10.9,5.2-18.4,5.2c-4.7,0.1-9.3-0.8-13.6-2.7c-3.7-1.6-6.9-4.2-9.3-7.5
	c-2.2-3-3.4-6.5-3.4-10.2h15.4c0,2.6,1.2,5,3.2,6.6c2.3,1.6,5.1,2.5,8,2.3c3.1,0,5.5-0.6,7.1-1.8
	C466.8,194.3,467.7,192.5,467.7,190.7z"/>
<path class="st0" d="M545.4,208.5c-7.3,0-13.3-2.2-17.9-6.7c-4.6-4.5-6.9-10.5-6.9-18v-1.3c-0.1-4.7,0.9-9.3,2.9-13.5
	c1.8-3.8,4.7-7,8.2-9.1c3.7-2.2,7.9-3.3,12.2-3.2c6.8,0,12.2,2.2,16.2,6.5c3.9,4.3,5.9,10.4,5.9,18.3v5.5h-31.8
	c0.3,3,1.7,5.8,3.9,7.9c2.3,2,5.2,3.1,8.2,3c5.1,0,9.2-1.9,12.1-5.6l6.6,7.3c-2.1,2.9-4.9,5.2-8.1,6.6
	C553.2,207.8,549.3,208.6,545.4,208.5z M543.8,167.5c-2.4-0.1-4.8,0.9-6.4,2.7c-1.7,1.8-2.7,4.4-3.2,7.7h18.6v-1.1
	c-0.1-3-0.9-5.3-2.4-6.9C548.9,168.2,546.7,167.4,543.8,167.5L543.8,167.5z"/>
<path class="st0" d="M583.2,167.5l0.3,4.5c2.8-3.5,6.7-5.2,11.5-5.2c5.2,0,8.7,2,10.6,6.1c2.8-4.1,6.8-6.1,12-6.1
	c4.4,0,7.6,1.3,9.7,3.8s3.2,6.3,3.2,11.4v25.6h-10.8V182c0-2.3-0.4-3.9-1.3-5c-0.9-1-2.5-1.6-4.7-1.6c-3.2,0-5.4,1.5-6.7,4.6v27.5
	h-10.6V182c0-2.3-0.5-4-1.4-5s-2.5-1.6-4.7-1.6c-3,0-5.2,1.3-6.6,3.8v28.4H573v-40.1H583.2z"/>
<path class="st0" d="M48.7,275.1H25.2l-4.5,13.4H6.5l24.2-65h12.5l24.3,65H53.2L48.7,275.1z M28.8,264.3h16.3L36.9,240L28.8,264.3z"
	/>
<path class="st0" d="M115.3,265.3c0,7.3-1.7,13.1-5,17.6c-3.1,4.3-8.1,6.8-13.4,6.6c-4.4,0.2-8.7-1.7-11.6-5v22.3H72.6v-65.6h11.7
	l0.4,4.6c2.9-3.6,7.4-5.7,12-5.5c5.8,0,10.4,2.2,13.6,6.5s4.9,10.3,4.8,17.9L115.3,265.3z M102.6,264.3c0-4.4-0.8-7.8-2.3-10.2
	c-1.4-2.3-4-3.7-6.8-3.6c-4,0-6.7,1.5-8.2,4.6v19.4c1.5,3.1,4.3,4.7,8.3,4.7C99.6,279.2,102.6,274.2,102.6,264.3L102.6,264.3z"/>
<path class="st0" d="M144.4,289.4c-6.8,0-12.4-2.1-16.6-6.3s-6.4-9.7-6.4-16.7v-1.2c-0.1-4.3,0.9-8.6,2.7-12.5
	c1.7-3.5,4.3-6.5,7.7-8.5s7.3-3,11.3-3c6.3,0,11.4,2,15,6c3.7,4,5.5,9.7,5.4,17v5.1H134c0.3,2.8,1.6,5.4,3.6,7.3
	c2.1,1.9,4.9,2.8,7.7,2.7c4.8,0,8.5-1.7,11.2-5.2l6.1,6.8c-1.9,2.7-4.5,4.8-7.6,6.2C151.6,288.7,148,289.4,144.4,289.4z M143,251.2
	c-2.3-0.1-4.5,0.8-6,2.5c-1.7,2-2.7,4.5-2.9,7.2h17.3v-1c0.1-2.3-0.7-4.6-2.2-6.4C147.5,251.9,145.3,251.1,143,251.2L143,251.2z"/>
<path class="st0" d="M181.6,243l0.4,5.3c3.1-4,8-6.3,13.1-6.1c4.8,0,8.4,1.4,10.8,4.2s3.6,7.1,3.6,12.7v29.4h-12.2v-29.1
	c0-2.6-0.6-4.5-1.7-5.6s-3-1.7-5.6-1.7c-3.2-0.1-6.2,1.5-7.7,4.4v32.1h-12.1v-45.4L181.6,243z"/>
<path class="st0" d="M245,288.5c-0.6-1.3-1-2.7-1.2-4.1c-2.9,3.3-7.1,5.1-11.5,4.9c-4,0.1-8-1.2-11.1-3.9c-2.9-2.4-4.5-6-4.4-9.8
	c0-4.8,1.8-8.5,5.4-11.1c3.6-2.6,8.7-3.9,15.5-3.9h5.6V258c0.1-1.8-0.5-3.6-1.6-5c-1.1-1.3-2.8-1.9-5.1-1.9
	c-1.7-0.1-3.4,0.4-4.8,1.5c-1.2,1-1.8,2.5-1.7,4H218c0-2.6,0.9-5.2,2.4-7.3c1.8-2.4,4.2-4.2,6.9-5.3c3.2-1.3,6.6-2,10-1.9
	c5.6,0,10,1.4,13.3,4.2s4.9,6.8,4.9,11.9V278c0,4.3,0.6,7.6,1.8,9.8v0.7H245z M235,280.1c1.7,0,3.4-0.4,5-1.2
	c1.4-0.7,2.6-1.8,3.4-3.2v-7.8h-4.5c-6.1,0-9.3,2.1-9.7,6.3v0.7c0,1.4,0.5,2.8,1.6,3.7C231.9,279.6,233.4,280.1,235,280.1z"/>
<path class="st0" d="M288.9,276.2c0-1.5-0.8-2.8-2.2-3.4c-2.2-1.1-4.5-1.8-6.9-2.2c-10.6-2.2-15.9-6.7-15.9-13.5
	c0-3.9,1.8-7.6,4.9-9.9c3.3-2.6,7.6-4,12.9-4c5.7,0,10.2,1.3,13.5,4c3.3,2.4,5.2,6.3,5.1,10.4h-11.9c0-1.6-0.6-3.1-1.7-4.2
	c-1.1-1.1-2.8-1.7-5.1-1.7c-1.7-0.1-3.3,0.4-4.7,1.4c-1.1,0.8-1.7,2.1-1.6,3.5c0,1.3,0.7,2.5,1.9,3.2c2,1.1,4.1,1.8,6.3,2.1
	c2.5,0.5,5,1.1,7.5,2c6.3,2.3,9.4,6.3,9.4,12c0.1,4-1.9,7.7-5.2,9.9c-3.5,2.5-8,3.8-13.5,3.8c-3.4,0.1-6.8-0.6-9.9-2
	c-2.7-1.2-5-3.1-6.8-5.5c-1.6-2.2-2.5-4.8-2.5-7.5h11.3c0,1.9,0.9,3.7,2.3,4.8c1.7,1.2,3.7,1.8,5.8,1.7c1.8,0.1,3.6-0.3,5.2-1.3
	C288.2,278.8,288.9,277.6,288.9,276.2z"/>
<path class="st0" d="M370.8,288.5h-39.9V281l20.8-17.4c1.5-1.2,2.9-2.7,4-4.3c0.8-1.3,1.2-2.8,1.2-4.3c0.1-1.6-0.6-3.2-1.9-4.1
	c-1.6-1.1-3.4-1.6-5.3-1.5c-2.1-0.1-4.2,0.6-5.8,2c-1.4,1.4-2.2,3.3-2.1,5.2h-11.9c0-3.1,0.8-6.1,2.5-8.6c1.7-2.6,4.2-4.7,7-6
	c3.2-1.5,6.8-2.2,10.3-2.2c6.1,0,10.8,1.3,14.1,3.8c3.2,2.4,5.1,6.3,4.9,10.3c0,2.6-0.7,5.1-1.9,7.3c-1.3,2.2-3.7,4.9-7.1,7.9
	l-11.6,9.8h22.7L370.8,288.5z"/>
<path class="st0" d="M412,244.9l0.4,4.8c3.1-3.8,7.7-5.9,12.6-5.7c5.6,0,9.5,2.2,11.6,6.7c3.1-4.4,7.4-6.6,13.1-6.7
	c4.7,0,8.2,1.4,10.6,4.1c2.3,2.8,3.5,6.9,3.5,12.4v27.8h-11.7v-27.8c0-2.5-0.5-4.3-1.5-5.4s-2.7-1.7-5.1-1.7c-3.3-0.2-6.2,1.9-7.3,5
	v30h-11.6v-27.8c0-2.5-0.5-4.4-1.5-5.5s-2.7-1.7-5.1-1.7c-3-0.2-5.8,1.4-7.2,4.1v30.8h-11.6v-43.6H412V244.9z"/>
<path class="st0" d="M492.6,289.3c-6.4,0-11.6-2-15.6-5.9s-6-9.1-6-15.7v-1.1c-0.1-4.1,0.8-8.1,2.5-11.7c1.6-3.3,4.1-6.1,7.2-8
	c3.2-1.9,6.9-2.9,10.6-2.8c6,0,10.7,1.9,14.1,5.6s5.1,9.1,5.1,16v4.8h-27.8c0.3,2.6,1.5,5.1,3.4,6.8c2,1.8,4.5,2.7,7.2,2.6
	c4.1,0.2,8-1.6,10.5-4.8l5.8,6.3c-1.8,2.5-4.3,4.5-7.1,5.8C499.4,288.7,496,289.4,492.6,289.3z M491.3,253.5
	c-2.1-0.1-4.2,0.8-5.6,2.3c-1.6,1.9-2.5,4.3-2.8,6.8h16.2v-1c0.1-2.2-0.7-4.3-2.1-6C495.5,254.2,493.4,253.4,491.3,253.5z"/>
<path class="st0" d="M540.1,276.7c0-1.4-0.8-2.7-2.1-3.3c-2.1-1-4.3-1.8-6.6-2.1c-10.1-2.1-15.2-6.4-15.2-12.9
	c0-3.7,1.7-7.2,4.7-9.5c3.1-2.5,7.2-3.8,12.3-3.8c5.4,0,9.7,1.3,13,3.9c3.1,2.3,4.9,6,4.8,9.9h-11.4c0-1.5-0.5-3-1.6-4
	c-1.1-1.1-2.7-1.6-4.9-1.6c-1.6-0.1-3.2,0.4-4.4,1.3c-1,0.8-1.6,2-1.6,3.3s0.7,2.4,1.8,3.1c1.9,1,3.9,1.7,6.1,2
	c2.4,0.5,4.8,1.1,7.2,1.9c6,2.2,9,6,9,11.5c0.1,3.8-1.8,7.4-5,9.4c-3.3,2.4-7.7,3.6-12.9,3.6c-3.3,0.1-6.5-0.6-9.5-1.9
	c-2.6-1.1-4.9-2.9-6.5-5.2c-1.5-2.1-2.4-4.6-2.4-7.2h10.8c0,1.8,0.8,3.5,2.2,4.7c1.6,1.2,3.6,1.7,5.6,1.6c1.7,0.1,3.5-0.3,5-1.2
	C539.5,279.3,540.1,278.1,540.1,276.7z"/>
<path class="st0" d="M577.6,289.3c-6.1,0-11.1-1.9-14.9-5.6c-3.8-3.8-5.8-8.7-5.8-15v-1.1c-0.1-3.9,0.8-7.7,2.4-11.2
	c1.5-3.2,3.9-5.8,6.9-7.6c3.1-1.8,6.6-2.7,10.2-2.7c5.7,0,10.2,1.8,13.5,5.4s4.9,8.7,4.9,15.3v4.5h-26.5c0.3,2.5,1.4,4.8,3.3,6.6
	c1.9,1.7,4.4,2.6,6.9,2.5c3.9,0.2,7.7-1.6,10.1-4.7l5.5,6.1c-1.7,2.4-4.1,4.3-6.8,5.5C584.1,288.7,580.9,289.3,577.6,289.3z
	 M576.3,255c-2-0.1-4,0.7-5.4,2.2c-1.5,1.8-2.4,4.1-2.6,6.4h15.5v-0.9c0.1-2.1-0.6-4.2-2-5.8C580.3,255.6,578.4,254.9,576.3,255z"/>
<path class="st0" d="M623.7,277c0-1.4-0.8-2.6-2-3.2c-2.1-1-4.2-1.7-6.5-2.1c-9.9-2.1-14.9-6.3-14.9-12.6c0-3.6,1.7-7.1,4.6-9.3
	c3.1-2.5,7.1-3.7,12-3.7c5.3,0,9.5,1.2,12.7,3.7c3.1,2.3,4.8,5.9,4.8,9.7h-11.2c0-1.5-0.5-2.9-1.5-3.9s-2.6-1.6-4.8-1.6
	c-1.6-0.1-3.1,0.4-4.4,1.3c-1,0.8-1.6,2-1.5,3.2c0,1.2,0.7,2.4,1.8,3c1.8,1,3.8,1.6,5.9,1.9c2.4,0.4,4.7,1.1,7,1.9
	c5.9,2.2,8.8,5.9,8.8,11.2c0,3.7-1.8,7.2-4.9,9.2c-3.3,2.4-7.5,3.6-12.6,3.6c-3.2,0.1-6.4-0.6-9.3-1.9c-2.5-1.1-4.7-2.9-6.4-5.1
	c-1.5-2-2.3-4.5-2.3-7h10.6c0,1.8,0.8,3.5,2.2,4.6c1.6,1.1,3.5,1.7,5.5,1.6c1.7,0.1,3.4-0.3,4.8-1.2
	C623.1,279.5,623.7,278.3,623.7,277z"/>
<g>
	<path class="st0" d="M256,63.9l-5.9-1.1c0.7-2.4,1.8-4.2,3.4-5.3c1.6-1.1,4-1.7,7.3-1.7c2.9,0,5.1,0.3,6.5,1c1.4,0.7,2.4,1.6,3,2.6
		c0.6,1.1,0.9,3,0.9,5.8l-0.1,7.6c0,2.2,0.1,3.8,0.3,4.8c0.2,1,0.6,2.1,1.2,3.3h-6.5c-0.2-0.4-0.4-1.1-0.6-1.9
		c-0.1-0.4-0.2-0.6-0.2-0.8c-1.1,1.1-2.3,1.9-3.6,2.4c-1.3,0.5-2.6,0.8-4.1,0.8c-2.5,0-4.5-0.7-6-2.1c-1.5-1.4-2.2-3.1-2.2-5.2
		c0-1.4,0.3-2.6,1-3.7s1.6-1.9,2.8-2.5c1.2-0.6,2.9-1.1,5.2-1.5c3.1-0.6,5.2-1.1,6.3-1.6v-0.7c0-1.3-0.3-2.1-0.9-2.7
		s-1.8-0.8-3.5-0.8c-1.2,0-2.1,0.2-2.7,0.7C256.9,62,256.4,62.8,256,63.9z M264.8,69.2c-0.8,0.3-2.2,0.6-4,1s-3,0.8-3.6,1.1
		c-0.9,0.6-1.3,1.4-1.3,2.3c0,0.9,0.3,1.7,1,2.4c0.7,0.7,1.5,1,2.6,1c1.2,0,2.3-0.4,3.4-1.2c0.8-0.6,1.3-1.3,1.6-2.2
		c0.2-0.6,0.3-1.6,0.3-3.2V69.2z"/>
	<path class="st0" d="M277.4,56.4h6.1V60c0.8-1.2,1.9-2.2,3.2-3c1.3-0.8,2.8-1.2,4.5-1.2c2.9,0,5.3,1.1,7.3,3.4c2,2.2,3,5.4,3,9.4
		c0,4.1-1,7.3-3,9.6s-4.5,3.4-7.3,3.4c-1.4,0-2.6-0.3-3.7-0.8c-1.1-0.5-2.3-1.5-3.5-2.8v12.4h-6.5V56.4z M283.9,68.3
		c0,2.8,0.5,4.8,1.7,6.1c1.1,1.3,2.4,2,4,2c1.5,0,2.8-0.6,3.8-1.8c1-1.2,1.5-3.2,1.5-6c0-2.6-0.5-4.5-1.6-5.8
		c-1-1.3-2.3-1.9-3.9-1.9c-1.6,0-2.9,0.6-4,1.8C284.4,64.1,283.9,65.9,283.9,68.3z"/>
	<path class="st0" d="M312.9,81.1h-6.5V56.4h6.1v3.5c1-1.7,2-2.8,2.8-3.3c0.8-0.5,1.8-0.8,2.8-0.8c1.5,0,2.9,0.4,4.3,1.2l-2,5.7
		c-1.1-0.7-2.1-1.1-3.1-1.1c-0.9,0-1.7,0.3-2.3,0.8c-0.6,0.5-1.1,1.4-1.5,2.7s-0.5,4.1-0.5,8.3V81.1z"/>
	<path class="st0" d="M339.5,73.2l6.5,1.1c-0.8,2.4-2.2,4.2-4,5.5c-1.8,1.2-4.1,1.9-6.8,1.9c-4.3,0-7.5-1.4-9.5-4.2
		c-1.6-2.2-2.4-5.1-2.4-8.5c0-4.1,1.1-7.3,3.2-9.6c2.1-2.3,4.8-3.5,8.1-3.5c3.7,0,6.6,1.2,8.7,3.6c2.1,2.4,3.1,6.1,3,11.1H330
		c0,1.9,0.6,3.4,1.6,4.5c1,1.1,2.3,1.6,3.8,1.6c1,0,1.9-0.3,2.6-0.8C338.6,75.4,339.1,74.5,339.5,73.2z M339.9,66.6
		c0-1.9-0.5-3.3-1.5-4.3s-2.1-1.5-3.4-1.5c-1.4,0-2.6,0.5-3.5,1.6c-0.9,1-1.4,2.4-1.4,4.2H339.9z"/>
	<path class="st0" d="M374.1,81.1h-6.5V68.5c0-2.7-0.1-4.4-0.4-5.2c-0.3-0.8-0.7-1.4-1.4-1.8c-0.6-0.4-1.4-0.7-2.3-0.7
		c-1.1,0-2.1,0.3-3,0.9c-0.9,0.6-1.5,1.4-1.8,2.5c-0.3,1-0.5,2.9-0.5,5.7v11.2h-6.5V56.4h6.1V60c2.2-2.8,4.9-4.2,8.1-4.2
		c1.4,0,2.8,0.3,4,0.8c1.2,0.5,2.1,1.2,2.7,2c0.6,0.8,1,1.7,1.3,2.7c0.2,1,0.4,2.5,0.4,4.4V81.1z"/>
	<path class="st0" d="M403.4,81.1h-6.1v-3.6c-1,1.4-2.2,2.5-3.6,3.1c-1.4,0.7-2.8,1-4.1,1c-2.8,0-5.3-1.1-7.3-3.4
		c-2-2.3-3-5.5-3-9.6c0-4.2,1-7.4,3-9.5c2-2.2,4.5-3.3,7.5-3.3c2.8,0,5.1,1.1,7.2,3.4V47h6.5V81.1z M386,68.2c0,2.6,0.4,4.5,1.1,5.7
		c1.1,1.7,2.5,2.6,4.4,2.6c1.5,0,2.8-0.6,3.8-1.9c1.1-1.3,1.6-3.2,1.6-5.7c0-2.8-0.5-4.9-1.5-6.1s-2.3-1.9-3.9-1.9
		c-1.5,0-2.8,0.6-3.9,1.8S386,65.8,386,68.2z"/>
	<path class="st0" d="M414.7,63.9l-5.9-1.1c0.7-2.4,1.8-4.2,3.4-5.3s4-1.7,7.3-1.7c2.9,0,5.1,0.3,6.5,1c1.4,0.7,2.4,1.6,3,2.6
		c0.6,1.1,0.9,3,0.9,5.8l-0.1,7.6c0,2.2,0.1,3.8,0.3,4.8c0.2,1,0.6,2.1,1.2,3.3h-6.5c-0.2-0.4-0.4-1.1-0.6-1.9
		c-0.1-0.4-0.2-0.6-0.2-0.8c-1.1,1.1-2.3,1.9-3.6,2.4c-1.3,0.5-2.6,0.8-4.1,0.8c-2.5,0-4.5-0.7-6-2.1c-1.5-1.4-2.2-3.1-2.2-5.2
		c0-1.4,0.3-2.6,1-3.7c0.7-1.1,1.6-1.9,2.8-2.5c1.2-0.6,2.9-1.1,5.2-1.5c3.1-0.6,5.2-1.1,6.3-1.6v-0.7c0-1.3-0.3-2.1-0.9-2.7
		c-0.6-0.5-1.8-0.8-3.5-0.8c-1.2,0-2.1,0.2-2.7,0.7C415.6,62,415.1,62.8,414.7,63.9z M423.4,69.2c-0.8,0.3-2.2,0.6-4,1
		s-3,0.8-3.6,1.1c-0.9,0.6-1.3,1.4-1.3,2.3c0,0.9,0.3,1.7,1,2.4c0.7,0.7,1.5,1,2.6,1c1.2,0,2.3-0.4,3.4-1.2c0.8-0.6,1.3-1.3,1.6-2.2
		c0.2-0.6,0.3-1.6,0.3-3.2V69.2z"/>
</g>
</svg>
